# xmcd
#
# Track frame offsets:
#	183
#	13335
#	27765
#	41610
#	54530
#	69720
#	82548
#	94760
#	108545
#	121735
#	135740
#	148930
#	161953
#	175080
#	189288
#	203605
#	216673
#
# Disc length: 3049 seconds
#
# Revision: 0
# Processed by: cddbd v1.4b42PL1 Copyright (c) Steve Scherf et al.
# Submitted via: audiograbber 1.80
#
DISCID=f10be711
DTITLE=Dinah Washington - The Complete Vol.1
DYEAR=1900
DGENRE=
TTITLE0=Evil gal blues
TTITLE1=I know how to do it
TTITLE2=Salty Papa blues
TTITLE3=Homeward bound
TTITLE4=Blow-Top blues
TTITLE5=Wise woman blues
TTITLE6=Walking blues
TTITLE7=No voot no boot
TTITLE8=Chewin' mama blues
TTITLE9=My lovin' Papa
TTITLE10=Rich man's blues
TTITLE11=All or nothing
TTITLE12=Beggin' mama blues
TTITLE13=Mellow mama blues
TTITLE14=My voot is really vout
TTITLE15=Blues for a day
TTITLE16=Pacific coast blues
EXTD=
EXTT0=
EXTT1=
EXTT2=
EXTT3=
EXTT4=
EXTT5=
EXTT6=
EXTT7=
EXTT8=
EXTT9=
EXTT10=
EXTT11=
EXTT12=
EXTT13=
EXTT14=
EXTT15=
EXTT16=
PLAYORDER=
